<mxfile host="65bd71144e">
    <diagram id="iZQnRsDqYFEXj52itweo" name="Page-1">
        <mxGraphModel dx="1890" dy="800" grid="1" gridSize="10" guides="1" tooltips="1" connect="1" arrows="1" fold="1" page="1" pageScale="1" pageWidth="827" pageHeight="1169" math="0" shadow="0">
            <root>
                <mxCell id="0"/>
                <mxCell id="1" parent="0"/>
                <mxCell id="2" value="DB" style="rounded=0;whiteSpace=wrap;html=1;" vertex="1" parent="1">
                    <mxGeometry x="-640" y="210" width="120" height="60" as="geometry"/>
                </mxCell>
                <mxCell id="3" value="Abrir e fechar con com bd&lt;br&gt;" style="text;html=1;align=center;verticalAlign=middle;resizable=0;points=[];autosize=1;strokeColor=none;fillColor=none;" vertex="1" parent="1">
                    <mxGeometry x="-500" y="220" width="160" height="30" as="geometry"/>
                </mxCell>
                <mxCell id="4" value="Config" style="rounded=0;whiteSpace=wrap;html=1;" vertex="1" parent="1">
                    <mxGeometry x="-640" y="320" width="120" height="60" as="geometry"/>
                </mxCell>
                <mxCell id="5" value="ler arquivos de configuracao" style="text;html=1;align=center;verticalAlign=middle;resizable=0;points=[];autosize=1;strokeColor=none;fillColor=none;" vertex="1" parent="1">
                    <mxGeometry x="-500" y="330" width="170" height="30" as="geometry"/>
                </mxCell>
                <mxCell id="6" value="handlers" style="rounded=0;whiteSpace=wrap;html=1;" vertex="1" parent="1">
                    <mxGeometry x="-640" y="430" width="120" height="60" as="geometry"/>
                </mxCell>
                <mxCell id="7" value="Receber chamadas da api e tratar" style="text;html=1;align=center;verticalAlign=middle;resizable=0;points=[];autosize=1;strokeColor=none;fillColor=none;" vertex="1" parent="1">
                    <mxGeometry x="-500" y="445" width="200" height="30" as="geometry"/>
                </mxCell>
                <mxCell id="8" value="model" style="rounded=0;whiteSpace=wrap;html=1;" vertex="1" parent="1">
                    <mxGeometry x="-640" y="520" width="120" height="60" as="geometry"/>
                </mxCell>
                <mxCell id="9" value="transacoes com banco de dados" style="text;html=1;align=center;verticalAlign=middle;resizable=0;points=[];autosize=1;strokeColor=none;fillColor=none;" vertex="1" parent="1">
                    <mxGeometry x="-500" y="535" width="200" height="30" as="geometry"/>
                </mxCell>
            </root>
        </mxGraphModel>
    </diagram>
</mxfile>